<svg width="1304" height="264" viewBox="0 0 1304 264" fill="none" xmlns="http://www.w3.org/2000/svg">
<path d="M229.395 83.2074C231.019 83.2074 232.336 81.8887 232.336 80.262V42.4555C232.336 41.6744 232.026 40.9252 231.474 40.3728L192.025 0.862683C191.473 0.310275 190.725 0 189.945 0H44.6004C43.8204 0 43.0723 0.310275 42.5209 0.862683L3.06559 40.3784C2.51402 40.9308 2.2042 41.68 2.2042 42.4612V116.384C2.2042 117.68 3.05058 118.824 4.28913 119.202L186.138 174.616C187.376 174.993 188.222 176.137 188.222 177.433V206.439C188.222 207.22 187.913 207.969 187.361 208.521L175.854 220.046C175.303 220.598 174.554 220.909 173.774 220.909H59.328C58.534 220.909 57.7738 220.587 57.2201 220.017L46.0468 208.516C45.5126 207.966 45.2137 207.229 45.2137 206.462V183.348C45.2137 181.722 43.8971 180.403 42.2728 180.403H2.94088C1.31663 180.403 0 181.722 0 183.348V219.689C0 220.47 0.309822 221.219 0.861384 221.771L42.164 263.137C42.7154 263.69 43.4636 264 44.2435 264H190.681C191.461 264 192.209 263.69 192.76 263.137L233.139 222.697C233.69 222.144 234 221.395 234 220.614V145.776C234 144.474 233.147 143.327 231.901 142.954L49.1589 88.2537C47.9134 87.8808 47.0601 86.7335 47.0601 85.4316V57.1483C47.0601 56.3672 47.37 55.6178 47.9215 55.0656L59.8293 43.1394C60.3808 42.5871 61.1289 42.2767 61.9088 42.2767H173.765C174.551 42.2767 175.305 42.5926 175.858 43.1535L187.595 55.068C188.138 55.6192 188.443 56.3623 188.443 57.1367V80.262C188.443 81.8887 189.759 83.2074 191.383 83.2074H229.395Z" fill="white"/>
<g clip-path="url(#clip0_430_811)">
<path fill-rule="evenodd" clip-rule="evenodd" d="M306.537 60C305.757 60 305.008 60.3095 304.456 60.8604L263.862 101.371C263.31 101.922 263 102.669 263 103.448V220.362C263 221.141 263.31 221.888 263.862 222.439L304.646 263.14C305.199 263.691 305.947 264 306.728 264H432.876C433.664 264 434.419 263.685 434.973 263.124L475.153 222.437C475.696 221.887 476 221.146 476 220.375V103.444C476 102.667 475.692 101.922 475.143 101.371L434.757 60.8656C434.205 60.3115 433.454 60 432.671 60H306.537ZM323.01 102C322.232 102 321.487 102.312 320.937 102.866L308.359 115.558C307.809 116.113 307.5 116.865 307.5 117.649V206.555C307.5 207.339 307.809 208.091 308.359 208.646L320.735 221.134C321.284 221.688 322.03 222 322.807 222H417.32C418.098 222 418.843 221.688 419.393 221.134L430.641 209.784C431.191 209.229 431.5 208.477 431.5 207.693V117.608C431.5 116.848 431.21 116.117 430.69 115.567L418.735 102.917C418.182 102.331 417.415 102 416.613 102H323.01Z" fill="white"/>
</g>
<g clip-path="url(#clip1_430_811)">
<path fill-rule="evenodd" clip-rule="evenodd" d="M1134.54 60C1133.76 60 1133.01 60.3095 1132.46 60.8604L1091.86 101.371C1091.31 101.922 1091 102.669 1091 103.448V220.362C1091 221.141 1091.31 221.888 1091.86 222.439L1132.65 263.14C1133.2 263.691 1133.95 264 1134.73 264H1260.88C1261.66 264 1262.42 263.685 1262.97 263.124L1303.15 222.437C1303.7 221.887 1304 221.146 1304 220.375V103.444C1304 102.667 1303.69 101.922 1303.14 101.371L1262.76 60.8656C1262.21 60.3115 1261.45 60 1260.67 60H1134.54ZM1151.01 102C1150.23 102 1149.49 102.312 1148.94 102.866L1136.36 115.558C1135.81 116.113 1135.5 116.865 1135.5 117.649V206.555C1135.5 207.339 1135.81 208.091 1136.36 208.646L1148.73 221.134C1149.28 221.688 1150.03 222 1150.81 222H1245.32C1246.1 222 1246.84 221.688 1247.39 221.134L1258.64 209.784C1259.19 209.229 1259.5 208.477 1259.5 207.693V117.608C1259.5 116.848 1259.21 116.117 1258.69 115.567L1246.74 102.917C1246.18 102.331 1245.42 102 1244.61 102H1151.01Z" fill="white"/>
</g>
<path d="M507.944 59.5026C506.318 59.5028 505 60.8169 505 62.4378V260.565C505 262.186 506.318 263.5 507.945 263.5H547.751C549.377 263.5 550.696 262.186 550.696 260.565V104.998C550.696 103.377 552.014 102.063 553.64 102.063H614.205C614.986 102.063 615.735 102.372 616.287 102.923L628.186 114.784C628.739 115.334 629.049 116.081 629.049 116.859V260.565C629.049 262.186 630.367 263.5 631.994 263.5H671.397C673.024 263.5 674.342 262.186 674.342 260.565V104.998C674.342 103.377 675.66 102.063 677.287 102.063H738.593C739.388 102.063 740.15 102.384 740.704 102.952L752.254 114.789C752.789 115.337 753.088 116.071 753.088 116.835V260.565C753.088 262.186 754.406 263.5 756.033 263.5H795.055C796.682 263.5 798 262.186 798 260.565V103.279C798 102.501 797.69 101.754 797.137 101.204L756.162 60.3596C755.61 59.8093 754.861 59.5 754.08 59.5H687.312C686.532 59.5 685.783 59.8093 685.23 60.3596L661.659 83.8549C660.515 84.9957 658.661 85.002 657.509 83.8692L633.582 60.3454C633.031 59.8037 632.288 59.5 631.514 59.5H569.526C568.745 59.5 567.996 59.8093 567.444 60.3596L549.591 78.1545C548.043 79.6975 545.407 79.0772 544.715 77.0068L539.535 61.5076C539.134 60.3087 538.009 59.5 536.741 59.5002L507.944 59.5026Z" fill="white"/>
<path d="M829.946 59C827.798 59 826.374 61.2249 827.275 63.1726L919.45 262.294C919.931 263.334 920.973 264 922.12 264H965.473C966.614 264 967.652 263.341 968.136 262.31L1061.72 63.188C1062.63 61.2389 1061.21 59 1059.05 59H1017.06C1015.89 59 1014.83 59.6924 1014.36 60.7636L947.212 214.476C946.306 216.549 943.492 216.866 942.147 215.045C942.016 214.868 941.906 214.677 941.818 214.476L874.665 60.7636C874.197 59.6924 873.139 59 871.968 59H829.946Z" fill="white"/>
<defs>
<clipPath id="clip0_430_811">
<rect width="213" height="204" fill="white" transform="translate(263 60)"/>
</clipPath>
<clipPath id="clip1_430_811">
<rect width="213" height="204" fill="white" transform="translate(1091 60)"/>
</clipPath>
</defs>
</svg>
