<svg width="234" height="264" viewBox="0 0 234 264" fill="none" xmlns="http://www.w3.org/2000/svg">
<path d="M229.395 83.2074C231.019 83.2074 232.336 81.8887 232.336 80.262V42.4555C232.336 41.6744 232.026 40.9252 231.474 40.3728L192.025 0.862683C191.473 0.310275 190.725 0 189.945 0H44.6004C43.8204 0 43.0723 0.310275 42.5209 0.862683L3.06559 40.3784C2.51402 40.9308 2.2042 41.68 2.2042 42.4612V116.384C2.2042 117.68 3.05058 118.824 4.28913 119.202L186.138 174.616C187.376 174.993 188.222 176.137 188.222 177.433V206.439C188.222 207.22 187.913 207.969 187.361 208.521L175.854 220.046C175.303 220.598 174.554 220.909 173.774 220.909H59.328C58.534 220.909 57.7738 220.587 57.2201 220.017L46.0468 208.516C45.5126 207.966 45.2137 207.229 45.2137 206.462V183.348C45.2137 181.722 43.8971 180.403 42.2728 180.403H2.94088C1.31663 180.403 0 181.722 0 183.348V219.689C0 220.47 0.309822 221.219 0.861384 221.771L42.164 263.137C42.7154 263.69 43.4636 264 44.2435 264H190.681C191.461 264 192.209 263.69 192.76 263.137L233.139 222.697C233.69 222.144 234 221.395 234 220.614V145.776C234 144.474 233.147 143.327 231.901 142.954L186.216 129.279L163.373 122.442L83 143.187L140.53 115.962V115.604L94.8445 101.929L72.0017 95.0913L60.5803 91.6725L49.1589 88.2537C47.9134 87.8808 47.0601 86.7335 47.0601 85.4316V57.1483C47.0601 56.3672 47.37 55.6178 47.9215 55.0656L59.8293 43.1394C60.3808 42.5871 61.1289 42.2767 61.9088 42.2767H173.765C174.551 42.2767 175.305 42.5926 175.858 43.1535L187.595 55.068C188.138 55.6192 188.443 56.3623 188.443 57.1367V80.262C188.443 81.8887 189.759 83.2074 191.383 83.2074H229.395Z" fill="white"/>
</svg>
